Coordinates
version=1
nRows=11
nColumns=38
inDegrees=no

Units are S.I. units (second, meters, Newtons, ...)
If the header above contains a line with 'inDegrees', this indicates whether rotational values are in degrees (yes) or radians (no).

endheader
time	pelvis_tilt	pelvis_list	pelvis_rotation	pelvis_tx	pelvis_ty	pelvis_tz	hip_flexion_r	hip_adduction_r	hip_rotation_r	knee_angle_r	ankle_angle_r	subtalar_angle_r	mtp_angle_r	hip_flexion_l	hip_adduction_l	hip_rotation_l	knee_angle_l	ankle_angle_l	subtalar_angle_l	mtp_angle_l	lumbar_extension	lumbar_bending	lumbar_rotation	arm_flex_r	arm_add_r	arm_rot_r	elbow_flex_r	pro_sup_r	wrist_flex_r	wrist_dev_r	arm_flex_l	arm_add_l	arm_rot_l	elbow_flex_l	pro_sup_l	wrist_flex_l	wrist_dev_l
1.15	-0.277846	-0.0562676	-0.176692	0.993023	0.992393	-0.344323	0.873886	0.129525	-0.33947	-0.465653	0.133288	0.0915429	0.0289867	-0.010987	-0.00943253	-0.100978	-1.28812	-0.154827	0.0686156	-0.0460686	0.0538339	0.128248	-0.0220204	-0.894719	-0.299003	-0.375282	1.93597	1.11014	0.0296385	0.0387998	-0.354556	-0.17275	-0.0744936	2.27027	1.62152	0.0524674	0.043873
1.16	-0.274766	-0.0611794	-0.186738	0.992078	0.987874	-0.34494	0.851579	0.135269	-0.354654	-0.473349	0.125211	0.0915429	0.0289867	0.0309265	-0.0249496	-0.111512	-1.41429	-0.124339	0.0686156	-0.0460686	0.0430016	0.138678	-0.00106695	-0.864498	-0.312044	-0.37037	1.94063	1.11311	0.0296385	0.0387998	-0.355987	-0.168939	-0.0613738	2.20437	1.63537	0.0524674	0.043873
1.17	-0.272883	-0.0637922	-0.197347	0.9907	0.982495	-0.345595	0.834996	0.138192	-0.360064	-0.507449	0.131828	0.0915429	0.0289867	0.0801655	-0.0409101	-0.122781	-1.53664	-0.0901767	0.0686156	-0.0460686	0.0332476	0.146325	0.0229608	-0.828516	-0.328378	-0.361879	1.94038	1.11705	0.0296385	0.0387998	-0.358668	-0.16487	-0.0485566	2.13293	1.65004	0.0524674	0.043873
1.18	-0.272164	-0.0639724	-0.208486	0.988776	0.976543	-0.346243	0.823342	0.138992	-0.354984	-0.563079	0.15509	0.0915429	0.0289867	0.136938	-0.0569429	-0.13307	-1.65271	-0.0530873	0.0686156	-0.0460686	0.0243307	0.150737	0.0496094	-0.786116	-0.347358	-0.349372	1.93449	1.12171	0.0296385	0.0387998	-0.362579	-0.160962	-0.0363667	2.05826	1.66497	0.0524674	0.043873
1.19	-0.272442	-0.061834	-0.219926	0.986217	0.970517	-0.346859	0.814979	0.138544	-0.339529	-0.633393	0.195114	0.0915429	0.0289867	0.201269	-0.0727439	-0.140851	-1.76016	-0.0141433	0.0686156	-0.0460686	0.0159713	0.151765	0.0781119	-0.736927	-0.368145	-0.332659	1.92296	1.12675	0.0296385	0.0387998	-0.367961	-0.15758	-0.0253272	1.98306	1.67904	0.0524674	0.043873
1.2	-0.273471	-0.0576783	-0.231164	0.98306	0.964853	-0.347423	0.807639	0.137523	-0.314818	-0.710364	0.24983	0.0915429	0.0289867	0.272903	-0.0879431	-0.144855	-1.85672	0.0253081	0.0686156	-0.0460686	0.00797627	0.149446	0.10737	-0.681108	-0.3897	-0.311919	1.90674	1.13168	0.0296385	0.0387998	-0.37532	-0.155101	-0.0160731	1.91037	1.69084	0.0524674	0.043873
1.21	-0.275045	-0.0518329	-0.241406	0.979382	0.95976	-0.347928	0.798789	0.136158	-0.282932	-0.785883	0.315222	0.0915429	0.0289867	0.351221	-0.102029	-0.144175	-1.9402	0.0638036	0.0686156	-0.0460686	0.00032955	0.143949	0.13607	-0.619559	-0.410802	-0.287825	1.88778	1.13594	0.0296385	0.0387998	-0.385354	-0.153956	-0.00918062	1.84344	1.69884	0.0524674	0.043873
1.22	-0.277027	-0.0445743	-0.249698	0.975266	0.955359	-0.34839	0.786074	0.134164	-0.246713	-0.852873	0.386074	0.0915429	0.0289867	0.435192	-0.114356	-0.138397	-2.00855	0.0999049	0.0686156	-0.0460686	-0.00673951	0.135554	0.162918	-0.554011	-0.430116	-0.261616	1.86895	1.13903	0.0296385	0.0387998	-0.398803	-0.154642	-0.00497402	1.78538	1.70167	0.0524674	0.043873
1.23	-0.279386	-0.0361588	-0.255148	0.97091	0.951832	-0.34883	0.767653	0.130906	-0.209305	-0.90604	0.456803	0.0915429	0.0289867	0.523348	-0.124257	-0.127738	-2.05997	0.132376	0.0686156	-0.0460686	-0.0127902	0.124638	0.18689	-0.486932	-0.446303	-0.235035	1.8537	1.14077	0.0296385	0.0387998	-0.416276	-0.157654	-0.00339933	1.73885	1.6983	0.0524674	0.043873
1.24	-0.282074	-0.0268948	-0.257142	0.966628	0.949455	-0.349249	0.742373	0.125701	-0.173601	-0.942169	0.522093	0.0915429	0.0289867	0.613797	-0.131227	-0.113101	-2.09306	0.160351	0.0686156	-0.0460686	-0.017242	0.111671	0.207407	-0.421206	-0.458183	-0.210092	1.84548	1.14146	0.0296385	0.0387998	-0.43813	-0.163367	-0.00404386	1.70572	1.68827	0.0524674	0.043873
1.25	-0.285082	-0.017096	-0.255428	0.962742	0.948453	-0.349615	0.709681	0.118093	-0.141844	-0.960001	0.577168	0.0915429	0.0289867	0.704239	-0.135058	-0.0959639	-2.10692	0.183403	0.0686156	-0.0460686	-0.0196091	0.0972236	0.224351	-0.359669	-0.464912	-0.18868	1.84713	1.14201	0.0296385	0.0387998	-0.464425	-0.171906	-0.00631228	1.68684	1.67193	0.0524674	0.043873
